inDegrees=no
num_controls=7
num_derivatives=13
num_iterations=112
num_multipliers=7
num_parameters=0
num_slacks=7
num_states=26
objective=0.497120
objective_accelerations=0.032137
objective_balance=0.003282
objective_effort=0.034959
objective_height=0.421267
objective_ligament=0.005475
solver_duration=1297.289302
status=Solve_Succeeded
success=true
DataType=double
version=3
OpenSimVersion=4.5
endheader
time	/jointset/ground_pelvis/pelvis_tilt/value	/jointset/ground_pelvis/pelvis_tx/value	/jointset/ground_pelvis/pelvis_ty/value	/jointset/hip_r/hip_flexion_r/value	/jointset/hip_r/hip_adduction_r/value	/jointset/hip_r/hip_rotation_r/value	/jointset/back/lumbar_extension/value	/jointset/patellofemoral_r/patellar_flexion_r/value	/jointset/knee_r/knee_flexion_r/value	/jointset/knee_r/knee_adduction_r/value	/jointset/knee_r/knee_rotation_r/value	/jointset/ankle_r/ankle_angle_r/value	/jointset/subtalar_r/subtalar_angle_r/value	/jointset/ground_pelvis/pelvis_tilt/speed	/jointset/ground_pelvis/pelvis_tx/speed	/jointset/ground_pelvis/pelvis_ty/speed	/jointset/hip_r/hip_flexion_r/speed	/jointset/hip_r/hip_adduction_r/speed	/jointset/hip_r/hip_rotation_r/speed	/jointset/back/lumbar_extension/speed	/jointset/patellofemoral_r/patellar_flexion_r/speed	/jointset/knee_r/knee_flexion_r/speed	/jointset/knee_r/knee_adduction_r/speed	/jointset/knee_r/knee_rotation_r/speed	/jointset/ankle_r/ankle_angle_r/speed	/jointset/subtalar_r/subtalar_angle_r/speed	/forceset/tau_hip_flexion_r	/forceset/tau_hip_adduction_r	/forceset/tau_hip_rotation_r	/forceset/tau_knee_flexion_r	/forceset/tau_ankle_angle_r	/forceset/tau_subtalar_angle_r	/forceset/tau_lumbar_extension	lambda_cid13_p0	lambda_cid14_p0	lambda_cid14_p1	lambda_cid14_p2	lambda_cid14_p3	lambda_cid14_p4	lambda_cid14_p5	/jointset/ground_pelvis/pelvis_tilt/accel	/jointset/ground_pelvis/pelvis_tx/accel	/jointset/ground_pelvis/pelvis_ty/accel	/jointset/hip_r/hip_flexion_r/accel	/jointset/hip_r/hip_adduction_r/accel	/jointset/hip_r/hip_rotation_r/accel	/jointset/back/lumbar_extension/accel	/jointset/patellofemoral_r/patellar_flexion_r/accel	/jointset/knee_r/knee_flexion_r/accel	/jointset/knee_r/knee_adduction_r/accel	/jointset/knee_r/knee_rotation_r/accel	/jointset/ankle_r/ankle_angle_r/accel	/jointset/subtalar_r/subtalar_angle_r/accel	gamma_cid13_p0	gamma_cid14_p0	gamma_cid14_p1	gamma_cid14_p2	gamma_cid14_p3	gamma_cid14_p4	gamma_cid14_p5
1.5	-0.1042130503432303	0.06209979852957345	0.8719183441831678	0.6593418449593836	-0.2273802806376986	-0.1442169722385173	-0.28157846001061	0.6423132306589665	0.6423132306589646	0.04187884042386729	0.1743096317672812	0.2572225974884112	0.05862102225197269	0.228741376256629	0.1156593640648723	0.3202167658084485	-1.429301618867385	0.01568949250260301	-0.2755859103131038	0.697378508626311	-1.729339454776863	-1.729339454776865	0.2839064151526087	0.0008394891427555906	-0.6193200864084822	-0.1569730225420879	-0.06358551306971605	-0.01627418671223872	0.006559578186302408	-0.3229527530605658	0.05619642151621811	-0.01253274353888688	0.1216572491762005	-34.48695829127622	-23.78831980364086	-5.611320096022739	-3.210755489726135	3.30519070952131	-663.3202732794952	57.03217500160379	0.02333736132382233	0.2642215178763117	-0.4376790870750058	-0.7041906630530418	-0.01363951386690002	-0.6052886723894346	1.231818836960479	-1.022734857305622	-1.022734857305625	0.3383263960716814	0.01302293294985683	-0.4600576860303283	-0.01870599841959997	1.163785026961421e-07	1.569014797794849e-07	-5.661995843184187e-07	1.280285012669059e-06	-2.399757923262605e-08	1.908423895704992e-07	-9.199162896248358e-07
1.51	-0.1019248678022243	0.0632694433119375	0.8750979038731018	0.6450155381885397	-0.2272249711977266	-0.1470016344802329	-0.2745440030962931	0.6249711599562392	0.6249711599562381	0.04473721165076305	0.1743186487250042	0.251006986264271	0.05704930394984095	0.2288633091774992	0.118251281162548	0.3156271644721131	-1.435759275606389	0.0153590430693484	-0.2812813669361073	0.7094067615818829	-1.738820489816267	-1.738820489816269	0.28780290245965	0.0009333110354636149	-0.623715182935311	-0.1573632406649962	-0.0581161433322465	-0.01827100412957488	0.005920885755097595	-0.3198747070912968	0.06027888197262547	-0.01324738405948022	0.1165543330106003	-35.3689045136129	-22.3512427060999	-5.555710130065274	-3.350243378822916	2.793405012741929	-660.2535920840536	57.21369798765897	0.001863063079312888	0.2539290159593643	-0.4797625603400731	-0.5864654289939119	-0.04459997627466048	-0.5416851010009491	1.172411626580492	-0.8726850124344098	-0.8726850124343322	0.4205406844687405	0.003202181943148686	-0.416174295060036	-0.0480340897720551	1.272761777866584e-07	1.590258257027589e-07	-6.935454528419439e-07	1.305316926569692e-06	-1.179889423978655e-08	1.944196843934542e-07	-1.00710876099199e-06
1.52	-0.09963641757088737	0.06446445770732752	0.8782295351689869	0.6306306724003719	-0.2270733367157311	-0.1498412534769277	-0.2673924470320755	0.6075418994660825	0.6075418994660826	0.04763559390801891	0.1743277319745566	0.2447500363430523	0.05547391259237101	0.2287949143227971	0.1207332866700704	0.3106310869986691	-1.441013422332186	0.01495450090729557	-0.2865772613089118	0.7207983386064521	-1.746777412262736	-1.746777412262736	0.2919086212246271	0.0008527475086452326	-0.627587825824175	-0.1577076336097289	-0.05264677359475829	-0.020267821546911	0.005282193323892746	-0.3167966611220277	0.06436134242903287	-0.01396202458007349	0.1114514168450004	-36.21744909103769	-20.92297556175353	-5.498892065888568	-3.493066889890698	2.27731996861321	-657.331641658057	57.47026713035084	-0.01472819379063921	0.2422391998456502	-0.5189743144967164	-0.4634886604115667	-0.02845805962669209	-0.5253762223491646	1.104483650759956	-0.7179123387183771	-0.717912338718378	0.3801726876588744	-0.02185415095555889	-0.3555669584373607	-0.009540962784468738	1.367698078575995e-07	1.595286349891536e-07	-8.153606704930744e-07	1.3183103727368e-06	7.859173862402903e-10	1.980974372111228e-07	-1.088481940818385e-06
1.53	-0.09734966845295488	0.06568370206637926	0.8813092315992057	0.6161993897319668	-0.2269259976064482	-0.1527328273839172	-0.2601302175034253	0.5900407203677346	0.5900407203677336	0.05057527433491416	0.1743357824861443	0.2384570060238649	0.05389550139861399	0.2285188776821175	0.1230928826220217	0.3052465572337075	-1.445031180553118	0.01451780824778369	-0.2917438323117864	0.7315318957591411	-1.753198618356244	-1.753198618356242	0.2959888660871567	0.0007710789285438066	-0.6309256194530964	-0.1579422163450037	-0.04707664639628914	-0.02239780052451095	0.004649884425266653	-0.3138577424544391	0.06859757914129572	-0.01479939919538231	0.106281088080512	-37.02808865709002	-19.46158619773614	-5.49655138047456	-3.619238963231778	1.775906786134155	-654.5473924521759	57.68328062504623	-0.03943106429190073	0.2294185627192503	-0.5573977976110516	-0.3391113437361646	-0.05047431664761208	-0.5130168237743015	1.040441042854339	-0.5652861981655157	-0.5652861981655118	0.4161020359311749	0.0009634981834896663	-0.3089726765645601	-0.02555932837337324	1.447716400952419e-07	1.583085615988638e-07	-9.312995715922858e-07	1.318512946937037e-06	1.378098856002865e-08	2.018819266481745e-07	-1.163672123382724e-06
1.54	-0.09506675763444651	0.06692586213892039	0.8843332416337519	0.6017342910931919	-0.2267828653132673	-0.1556762108578389	-0.2527641225441819	0.5724831169177518	0.5724831169177497	0.05355458754051092	0.1743434736538752	0.2321333803460992	0.05231571589760937	0.2280272544379628	0.125316429367948	0.2994938078641274	-1.447776616406146	0.01411313768690481	-0.2969391746953689	0.7415714247250687	-1.75806228258969	-1.758062282589691	0.2998351769649332	0.000780878737259131	-0.6337068975398195	-0.1579824950592541	-0.04150651919781973	-0.02452777950210997	0.004017575526641051	-0.3109188237868506	0.07283381585355854	-0.01563677381069124	0.1011107593160239	-37.79638818929357	-18.00968852898484	-5.492678018610855	-3.749305143891201	1.270307647684497	-651.9216367553146	57.97592524518991	-0.05784551448566465	0.2150293586406176	-0.5926182354215755	-0.2090241868317224	-0.02205363990009043	-0.5311304984907347	0.9656780134076647	-0.4064039667059825	-0.4064039667059822	0.3333858907082334	-0.003560473194230303	-0.2442638499976987	0.02931984142039522	1.542604000656643e-07	1.568375835261821e-07	-1.059181516128238e-06	1.316769730415624e-06	2.807051182788853e-08	2.030599114506044e-07	-1.237635495623439e-06
